<svg xmlns="http://www.w3.org/2000/svg" xmlns:xlink="http://www.w3.org/1999/xlink" width="642" zoomAndPan="magnify" viewBox="0 0 481.91998 198.749996" height="264" preserveAspectRatio="xMidYMid meet" version="1.0"><defs><g/><clipPath id="42d903f0dc"><path d="M 221 40 L 274 40 L 274 83 L 221 83 Z M 221 40 " clip-rule="nonzero"/></clipPath><clipPath id="23294e997b"><path d="M 226.730469 -5.65625 L 310.136719 25.589844 L 284.667969 93.574219 L 201.261719 62.332031 Z M 226.730469 -5.65625 " clip-rule="nonzero"/></clipPath><clipPath id="f50a39fdc8"><path d="M 226.730469 -5.65625 L 310.136719 25.589844 L 284.667969 93.574219 L 201.261719 62.332031 Z M 226.730469 -5.65625 " clip-rule="nonzero"/></clipPath><clipPath id="a5dd5f759f"><path d="M 276 48 L 298 48 L 298 69 L 276 69 Z M 276 48 " clip-rule="nonzero"/></clipPath><clipPath id="6b3cfb3117"><path d="M 226.730469 -5.65625 L 310.136719 25.589844 L 284.667969 93.574219 L 201.261719 62.332031 Z M 226.730469 -5.65625 " clip-rule="nonzero"/></clipPath><clipPath id="6125343720"><path d="M 226.730469 -5.65625 L 310.136719 25.589844 L 284.667969 93.574219 L 201.261719 62.332031 Z M 226.730469 -5.65625 " clip-rule="nonzero"/></clipPath><clipPath id="fd99407dfc"><path d="M 213 23 L 231 23 L 231 47 L 213 47 Z M 213 23 " clip-rule="nonzero"/></clipPath><clipPath id="87aa5e8916"><path d="M 226.730469 -5.65625 L 310.136719 25.589844 L 284.667969 93.574219 L 201.261719 62.332031 Z M 226.730469 -5.65625 " clip-rule="nonzero"/></clipPath><clipPath id="7967aa9616"><path d="M 226.730469 -5.65625 L 310.136719 25.589844 L 284.667969 93.574219 L 201.261719 62.332031 Z M 226.730469 -5.65625 " clip-rule="nonzero"/></clipPath><clipPath id="b3c55e1f3b"><path d="M 235 6 L 260 6 L 260 37 L 235 37 Z M 235 6 " clip-rule="nonzero"/></clipPath><clipPath id="80e6afa014"><path d="M 226.730469 -5.65625 L 310.136719 25.589844 L 284.667969 93.574219 L 201.261719 62.332031 Z M 226.730469 -5.65625 " clip-rule="nonzero"/></clipPath><clipPath id="9a4113ba23"><path d="M 226.730469 -5.65625 L 310.136719 25.589844 L 284.667969 93.574219 L 201.261719 62.332031 Z M 226.730469 -5.65625 " clip-rule="nonzero"/></clipPath><clipPath id="8f2e4ec3fe"><path d="M 264 17 L 288 17 L 288 47 L 264 47 Z M 264 17 " clip-rule="nonzero"/></clipPath><clipPath id="a9a71c3676"><path d="M 226.730469 -5.65625 L 310.136719 25.589844 L 284.667969 93.574219 L 201.261719 62.332031 Z M 226.730469 -5.65625 " clip-rule="nonzero"/></clipPath><clipPath id="9445fc59ed"><path d="M 226.730469 -5.65625 L 310.136719 25.589844 L 284.667969 93.574219 L 201.261719 62.332031 Z M 226.730469 -5.65625 " clip-rule="nonzero"/></clipPath><clipPath id="969b07c507"><path d="M 145 53 L 185 53 L 185 88 L 145 88 Z M 145 53 " clip-rule="nonzero"/></clipPath><clipPath id="645e22edc8"><path d="M 113.308594 47.785156 L 175.117188 15.773438 L 201.277344 66.285156 L 139.46875 98.296875 Z M 113.308594 47.785156 " clip-rule="nonzero"/></clipPath><clipPath id="0baca146af"><path d="M 113.308594 47.785156 L 175.117188 15.773438 L 201.277344 66.285156 L 139.46875 98.296875 Z M 113.308594 47.785156 " clip-rule="nonzero"/></clipPath><clipPath id="99c27c0fd5"><path d="M 175 37 L 190 37 L 190 57 L 175 57 Z M 175 37 " clip-rule="nonzero"/></clipPath><clipPath id="3b30d0fd0a"><path d="M 113.308594 47.785156 L 175.117188 15.773438 L 201.277344 66.285156 L 139.46875 98.296875 Z M 113.308594 47.785156 " clip-rule="nonzero"/></clipPath><clipPath id="d53f0f094f"><path d="M 113.308594 47.785156 L 175.117188 15.773438 L 201.277344 66.285156 L 139.46875 98.296875 Z M 113.308594 47.785156 " clip-rule="nonzero"/></clipPath><clipPath id="a01fdcbb10"><path d="M 126 63 L 144 63 L 144 79 L 126 79 Z M 126 63 " clip-rule="nonzero"/></clipPath><clipPath id="b006f94633"><path d="M 113.308594 47.785156 L 175.117188 15.773438 L 201.277344 66.285156 L 139.46875 98.296875 Z M 113.308594 47.785156 " clip-rule="nonzero"/></clipPath><clipPath id="85a29f0639"><path d="M 113.308594 47.785156 L 175.117188 15.773438 L 201.277344 66.285156 L 139.46875 98.296875 Z M 113.308594 47.785156 " clip-rule="nonzero"/></clipPath><clipPath id="e8060c6f9d"><path d="M 131 38 L 151 38 L 151 61 L 131 61 Z M 131 38 " clip-rule="nonzero"/></clipPath><clipPath id="7a66c1e174"><path d="M 113.308594 47.785156 L 175.117188 15.773438 L 201.277344 66.285156 L 139.46875 98.296875 Z M 113.308594 47.785156 " clip-rule="nonzero"/></clipPath><clipPath id="2e7719b30a"><path d="M 113.308594 47.785156 L 175.117188 15.773438 L 201.277344 66.285156 L 139.46875 98.296875 Z M 113.308594 47.785156 " clip-rule="nonzero"/></clipPath><clipPath id="a925a8b1e1"><path d="M 151 27 L 171 27 L 171 51 L 151 51 Z M 151 27 " clip-rule="nonzero"/></clipPath><clipPath id="c7e107d6b5"><path d="M 113.308594 47.785156 L 175.117188 15.773438 L 201.277344 66.285156 L 139.46875 98.296875 Z M 113.308594 47.785156 " clip-rule="nonzero"/></clipPath><clipPath id="202e270c46"><path d="M 113.308594 47.785156 L 175.117188 15.773438 L 201.277344 66.285156 L 139.46875 98.296875 Z M 113.308594 47.785156 " clip-rule="nonzero"/></clipPath></defs><g clip-path="url(#42d903f0dc)"><g clip-path="url(#23294e997b)"><g clip-path="url(#f50a39fdc8)"><path fill="#ffffff" d="M 260.378906 44.113281 C 257.871094 42.464844 254.976562 41.378906 252 40.972656 C 237.070312 39.050781 227.726562 45.617188 223.347656 56.054688 C 218.753906 67.535156 225.726562 71.859375 242.949219 69.179688 C 245.089844 68.871094 247.285156 69.703125 248.691406 71.355469 C 259.429688 83.863281 266.988281 86.128906 271.527344 75.757812 C 275.894531 64.5625 273.445312 52.839844 260.378906 44.113281 Z M 260.378906 44.113281 " fill-opacity="1" fill-rule="nonzero"/></g></g></g><g clip-path="url(#a5dd5f759f)"><g clip-path="url(#6b3cfb3117)"><g clip-path="url(#6125343720)"><path fill="#ffffff" d="M 293.285156 49.226562 C 285.753906 45.722656 279.308594 54.265625 276.351562 61.980469 C 276.230469 62.304688 276.148438 62.644531 276.117188 62.980469 C 275.28125 71.957031 292.644531 68.671875 295.855469 62.050781 C 297.902344 57.832031 297.976562 51.648438 293.285156 49.226562 Z M 293.285156 49.226562 " fill-opacity="1" fill-rule="nonzero"/></g></g></g><g clip-path="url(#fd99407dfc)"><g clip-path="url(#87aa5e8916)"><g clip-path="url(#7967aa9616)"><path fill="#ffffff" d="M 228.191406 43.9375 C 231.042969 36.183594 231.785156 25.503906 223.804688 23.203125 C 218.671875 21.953125 214.65625 26.65625 213.433594 31.175781 C 211.503906 38.273438 222.441406 52.164062 227.699219 44.84375 C 227.910156 44.574219 228.070312 44.261719 228.191406 43.9375 Z M 228.191406 43.9375 " fill-opacity="1" fill-rule="nonzero"/></g></g></g><g clip-path="url(#b3c55e1f3b)"><g clip-path="url(#80e6afa014)"><g clip-path="url(#9a4113ba23)"><path fill="#ffffff" d="M 236.484375 28.8125 C 239.359375 34.59375 243.511719 37.0625 249.308594 36.503906 C 255.449219 36.132812 264.445312 14.386719 254.980469 7.933594 C 247.152344 1.992188 231.398438 18.75 236.484375 28.8125 Z M 236.484375 28.8125 " fill-opacity="1" fill-rule="nonzero"/></g></g></g><g clip-path="url(#8f2e4ec3fe)"><g clip-path="url(#a9a71c3676)"><g clip-path="url(#9445fc59ed)"><path fill="#ffffff" d="M 279.804688 17.230469 C 268.441406 15.871094 260.933594 38.175781 265.308594 42.496094 C 269.308594 46.726562 274.0625 47.59375 280.03125 45.125 C 290.484375 40.882812 289.617188 17.902344 279.804688 17.230469 Z M 281.539062 36.324219 C 279.824219 38.378906 272.691406 38.191406 272.691406 38.191406 C 272.691406 38.191406 271.257812 31.207031 272.976562 29.148438 C 273.984375 27.9375 275.695312 27.675781 276.964844 28.738281 C 278.589844 30.097656 277.742188 32.15625 277.742188 32.15625 C 277.742188 32.15625 279.617188 30.960938 281.242188 32.320312 C 282.511719 33.386719 282.546875 35.121094 281.539062 36.324219 Z M 281.539062 36.324219 " fill-opacity="1" fill-rule="nonzero"/></g></g></g><g clip-path="url(#969b07c507)"><g clip-path="url(#645e22edc8)"><g clip-path="url(#0baca146af)"><path fill="#50372b" d="M 159.703125 54.320312 C 157.4375 54.914062 155.296875 56.019531 153.507812 57.53125 C 144.589844 65.167969 143.507812 74.003906 147.261719 81.996094 C 151.503906 90.65625 157.652344 88.878906 165.101562 77.511719 C 166.042969 76.109375 167.671875 75.277344 169.363281 75.324219 C 182.214844 75.644531 187.476562 72.453125 183.847656 64.410156 C 179.652344 56.03125 171.585938 51.320312 159.703125 54.320312 Z M 159.703125 54.320312 " fill-opacity="1" fill-rule="nonzero"/></g></g></g><g clip-path="url(#99c27c0fd5)"><g clip-path="url(#3b30d0fd0a)"><g clip-path="url(#d53f0f094f)"><path fill="#50372b" d="M 179.863281 37.949219 C 173.898438 40.476562 175.472656 48.671875 178.394531 54.414062 C 178.515625 54.65625 178.667969 54.878906 178.851562 55.074219 C 183.609375 60.25 190.78125 48.480469 188.628906 43.164062 C 187.257812 39.773438 183.714844 36.5 179.863281 37.949219 Z M 179.863281 37.949219 " fill-opacity="1" fill-rule="nonzero"/></g></g></g><g clip-path="url(#a01fdcbb10)"><g clip-path="url(#b006f94633)"><g clip-path="url(#85a29f0639)"><path fill="#50372b" d="M 142.777344 72.859375 C 139.78125 67.15625 133.988281 61.144531 128.484375 64.558594 C 125.078125 66.878906 125.703125 71.660156 127.679688 74.734375 C 130.777344 79.558594 144.535156 80.488281 143.046875 73.617188 C 143 73.355469 142.902344 73.101562 142.777344 72.859375 Z M 142.777344 72.859375 " fill-opacity="1" fill-rule="nonzero"/></g></g></g><g clip-path="url(#e8060c6f9d)"><g clip-path="url(#7a66c1e174)"><g clip-path="url(#2e7719b30a)"><path fill="#50372b" d="M 138.359375 60.152344 C 143.207031 61.511719 146.808594 60.398438 149.511719 56.75 C 152.507812 53.003906 144.625 36.429688 135.941406 38.535156 C 128.410156 39.964844 129.875 57.835938 138.359375 60.152344 Z M 138.359375 60.152344 " fill-opacity="1" fill-rule="nonzero"/></g></g></g><g clip-path="url(#a925a8b1e1)"><g clip-path="url(#c7e107d6b5)"><g clip-path="url(#202e270c46)"><path fill="#50372b" d="M 154.296875 29.027344 C 147.570312 34.894531 156.558594 50.898438 161.34375 50.621094 C 165.886719 50.519531 168.871094 48.222656 170.558594 43.476562 C 173.570312 35.207031 159.816406 23.699219 154.296875 29.027344 Z M 166.253906 38 C 166.546875 40.070312 162.714844 44.101562 162.714844 44.101562 C 162.714844 44.101562 157.917969 41.277344 157.628906 39.210938 C 157.453125 37.992188 158.195312 36.863281 159.472656 36.683594 C 161.109375 36.457031 161.859375 38.019531 161.859375 38.019531 C 161.859375 38.019531 162.148438 36.3125 163.785156 36.082031 C 165.0625 35.90625 166.085938 36.789062 166.253906 38 Z M 166.253906 38 " fill-opacity="1" fill-rule="nonzero"/></g></g></g><g fill="#050a32" fill-opacity="1"><g transform="translate(14.811788, 156.048341)"><g><path d="M 18.484375 -52.925781 C 18.410156 -55.074219 18.332031 -57.222656 18.179688 -59.371094 C 18.027344 -61.289062 17.71875 -61.519531 15.878906 -61.210938 C 14.957031 -60.980469 14.039062 -60.828125 13.117188 -60.597656 C 11.046875 -60.214844 10.96875 -60.136719 10.664062 -57.988281 C 10.125 -53.925781 9.820312 -49.9375 9.742188 -45.871094 C 9.589844 -38.660156 9.589844 -31.371094 9.742188 -24.164062 C 9.742188 -23.546875 9.742188 -23.011719 9.742188 -22.398438 C 9.742188 -21.785156 9.359375 -21.476562 8.746094 -21.632812 C 7.59375 -21.9375 6.441406 -22.167969 5.371094 -22.476562 C 4.371094 -22.78125 4.066406 -22.320312 3.835938 -21.476562 C 3.605469 -20.480469 3.988281 -19.867188 4.984375 -19.558594 C 6.289062 -19.253906 7.515625 -18.871094 8.746094 -18.5625 C 9.511719 -18.332031 9.894531 -17.949219 9.972656 -17.183594 C 9.972656 -16.644531 10.046875 -16.03125 10.125 -15.496094 C 10.433594 -10.277344 10.816406 -5.0625 11.199219 0.152344 C 11.277344 1.457031 11.351562 2.761719 11.582031 3.988281 C 11.8125 5.828125 12.195312 6.058594 14.039062 5.90625 C 14.882812 5.828125 15.726562 5.753906 16.570312 5.675781 C 18.871094 5.445312 19.101562 5.214844 19.023438 3.066406 C 19.023438 2.453125 19.023438 1.917969 19.023438 1.304688 C 18.640625 -4.371094 18.5625 -10.125 18.5625 -15.800781 C 18.5625 -17.796875 18.5625 -17.796875 20.480469 -18.179688 C 24.621094 -18.945312 28.382812 -20.402344 31.910156 -22.703125 C 40.730469 -28.535156 45.257812 -38.738281 43.339844 -48.476562 C 42.878906 -50.78125 41.957031 -52.773438 40.269531 -54.382812 C 36.433594 -58.066406 31.066406 -58.375 26.386719 -55.152344 C 23.777344 -53.386719 21.785156 -50.933594 20.097656 -48.324219 C 19.714844 -47.710938 19.484375 -47.019531 18.640625 -46.484375 C 18.5625 -48.785156 18.5625 -50.855469 18.484375 -52.925781 Z M 24.390625 -47.097656 C 25.851562 -49.398438 27.539062 -51.394531 29.761719 -53.003906 C 31.371094 -54.078125 31.910156 -54.078125 33.367188 -52.695312 C 34.59375 -51.394531 35.4375 -49.859375 35.746094 -48.09375 C 37.050781 -40.808594 36.207031 -33.902344 31.527344 -27.769531 C 28.6875 -24.085938 25.007812 -21.785156 20.402344 -20.941406 C 18.640625 -20.558594 18.640625 -20.632812 18.5625 -22.476562 C 18.5625 -24.085938 18.5625 -25.621094 18.5625 -27.230469 C 18.101562 -34.59375 20.789062 -40.960938 24.390625 -47.097656 Z M 24.390625 -47.097656 "/></g></g></g><g fill="#050a32" fill-opacity="1"><g transform="translate(56.912691, 156.048341)"><g><path d="M 41.269531 -2.609375 C 38.738281 -11.121094 37.355469 -19.945312 36.128906 -28.6875 C 35.898438 -30.453125 36.050781 -30.605469 37.816406 -30.527344 C 40.195312 -30.453125 42.570312 -30.453125 44.949219 -30.757812 C 45.640625 -30.914062 46.253906 -30.988281 46.867188 -31.296875 C 47.25 -31.449219 47.632812 -31.679688 47.632812 -32.214844 C 47.710938 -32.832031 47.25 -33.058594 46.789062 -33.289062 C 45.945312 -33.675781 45.101562 -33.597656 44.183594 -33.519531 C 41.804688 -33.289062 39.425781 -33.519531 37.050781 -33.597656 C 35.976562 -33.597656 35.4375 -34.058594 35.363281 -35.132812 C 35.363281 -35.4375 35.285156 -35.820312 35.285156 -36.207031 C 34.519531 -44.566406 33.828125 -53.003906 33.136719 -61.441406 C 32.832031 -65.507812 32.984375 -64.96875 29.226562 -64.96875 C 26.617188 -64.96875 26.617188 -64.894531 25.925781 -62.363281 C 25.773438 -61.902344 25.621094 -61.363281 25.464844 -60.90625 C 22.628906 -52.925781 19.253906 -45.179688 16.261719 -37.277344 C 15.800781 -36.128906 15.1875 -35.746094 13.960938 -35.976562 C 11.199219 -36.433594 8.359375 -36.433594 5.523438 -36.207031 C 1.839844 -35.976562 -1.535156 -34.746094 -4.527344 -32.523438 C -5.0625 -32.140625 -5.675781 -31.601562 -6.136719 -31.066406 C -6.671875 -30.453125 -6.441406 -29.839844 -5.675781 -29.609375 C -4.449219 -29.226562 -3.222656 -29.148438 -2.070312 -29.683594 C -1.457031 -29.992188 -0.84375 -30.300781 -0.308594 -30.605469 C 3.988281 -33.136719 8.589844 -33.289062 13.347656 -32.601562 C 13.960938 -32.523438 14.265625 -32.292969 14.039062 -31.679688 C 13.960938 -31.296875 13.808594 -30.988281 13.730469 -30.605469 C 9.820312 -20.632812 6.75 -10.355469 3.835938 -0.078125 C 3.683594 0.460938 3.527344 0.996094 3.375 1.609375 C 3.296875 1.996094 3.527344 2.222656 3.835938 2.453125 C 5.597656 3.453125 6.828125 3.066406 7.515625 1.152344 C 7.824219 0.382812 8.128906 -0.460938 8.359375 -1.304688 C 9.511719 -4.984375 10.664062 -8.746094 11.8125 -12.503906 C 13.652344 -18.5625 15.648438 -24.621094 17.871094 -30.605469 C 18.410156 -32.214844 18.484375 -32.214844 20.171875 -32.0625 C 21.402344 -31.988281 22.628906 -31.832031 23.855469 -31.679688 C 25.695312 -31.527344 25.695312 -31.527344 25.925781 -29.683594 C 26.464844 -25.464844 27.152344 -21.246094 28.152344 -17.105469 C 29.683594 -11.046875 31.601562 -5.140625 34.519531 0.382812 C 36.589844 4.371094 39.808594 5.90625 44.105469 5.597656 C 45.871094 5.523438 47.175781 4.832031 48.25 3.527344 C 49.09375 2.453125 49.78125 1.226562 50.320312 0 C 53.386719 -6.367188 56.148438 -12.964844 58.449219 -19.636719 C 59.140625 -21.476562 59.675781 -23.320312 60.136719 -25.234375 C 60.367188 -26.234375 60.0625 -26.769531 59.140625 -27 C 58.601562 -27.078125 58.144531 -27.078125 57.605469 -27.230469 C 56.839844 -27.460938 56.378906 -27.152344 56.148438 -26.386719 C 56.070312 -26.082031 55.996094 -25.695312 55.84375 -25.390625 C 53.082031 -17.105469 49.707031 -9.128906 45.5625 -1.535156 C 44.949219 -0.382812 44.257812 0.765625 43.1875 1.839844 C 42.113281 0.308594 41.726562 -1.152344 41.269531 -2.609375 Z M 24.546875 -48.171875 C 25.234375 -47.710938 24.929688 -47.175781 24.929688 -46.714844 C 25.007812 -43.261719 25.007812 -39.808594 25.234375 -36.359375 C 25.390625 -34.902344 25.3125 -34.824219 23.933594 -34.902344 C 22.550781 -34.976562 21.171875 -35.054688 19.714844 -35.589844 C 21.324219 -39.808594 22.933594 -43.953125 24.546875 -48.171875 Z M 24.546875 -48.171875 "/></g></g></g><g fill="#050a32" fill-opacity="1"><g transform="translate(110.439961, 156.048341)"><g><path d="M 16.953125 -1.609375 C 16.796875 -2.070312 16.722656 -2.453125 16.644531 -2.914062 C 15.339844 -10.433594 14.726562 -17.949219 15.109375 -25.621094 C 15.417969 -32.753906 16.03125 -39.886719 16.570312 -47.019531 C 16.722656 -49.628906 16.722656 -52.238281 16.644531 -54.84375 C 16.492188 -56.914062 16.339844 -57.070312 14.113281 -57.144531 C 13.269531 -57.222656 12.425781 -57.222656 11.507812 -57.300781 C 9.359375 -57.300781 9.359375 -57.300781 8.746094 -55.152344 C 8.589844 -54.613281 8.4375 -54 8.285156 -53.464844 C 6.519531 -46.5625 5.214844 -39.503906 4.449219 -32.371094 C 3.757812 -25.621094 3.453125 -18.792969 4.371094 -12.042969 C 4.910156 -8.359375 5.597656 -4.679688 7.285156 -1.378906 C 9.359375 2.683594 11.351562 4.296875 16.953125 3.835938 C 18.871094 3.683594 20.328125 2.839844 21.476562 1.304688 C 22.933594 -0.613281 24.007812 -2.761719 24.851562 -4.984375 C 26.082031 -8.4375 27 -11.890625 27.921875 -15.417969 C 28.152344 -16.03125 28.226562 -16.722656 28.839844 -17.640625 C 29.300781 -16.339844 29.609375 -15.339844 29.992188 -14.34375 C 32.753906 -7.285156 37.664062 -3.910156 44.949219 -4.140625 C 49.167969 -4.296875 52.773438 -5.597656 55.226562 -9.28125 C 55.996094 -10.585938 56.609375 -11.964844 57.070312 -13.421875 C 57.683594 -15.265625 58.144531 -17.183594 58.449219 -19.101562 C 58.679688 -20.710938 58.757812 -20.632812 60.214844 -20.25 C 61.59375 -19.789062 62.898438 -19.40625 64.203125 -19.101562 C 67.347656 -18.332031 70.492188 -18.257812 73.714844 -18.640625 C 74.40625 -18.792969 74.941406 -18.945312 74.941406 -19.789062 C 74.941406 -20.941406 74.25 -21.015625 73.332031 -20.941406 C 69.113281 -20.789062 65.046875 -21.707031 61.210938 -23.703125 C 59.753906 -24.46875 59.0625 -25.464844 59.21875 -27.308594 C 59.445312 -32.832031 59.292969 -38.429688 57.914062 -43.875 C 57.222656 -46.789062 56.148438 -49.550781 54.308594 -51.929688 C 52.773438 -53.769531 51.007812 -55.226562 48.707031 -55.917969 C 44.414062 -57.144531 40.960938 -55 40.269531 -50.625 C 39.734375 -47.328125 40.5 -44.257812 41.574219 -41.269531 C 43.722656 -35.132812 47.25 -29.839844 51.929688 -25.464844 C 52.773438 -24.699219 53.15625 -23.933594 52.925781 -22.78125 C 52.160156 -18.714844 51.085938 -14.804688 49.015625 -11.121094 C 48.632812 -10.507812 48.25 -9.894531 47.710938 -9.433594 C 46.484375 -8.207031 45.179688 -8.207031 43.953125 -9.511719 C 43.03125 -10.433594 42.496094 -11.660156 41.957031 -12.808594 C 39.886719 -17.488281 38.890625 -22.476562 37.96875 -27.460938 C 37.277344 -30.757812 36.742188 -34.132812 35.667969 -37.355469 C 35.285156 -38.507812 34.746094 -39.121094 33.445312 -38.964844 C 32.523438 -38.8125 31.601562 -38.890625 30.683594 -38.8125 C 28.765625 -38.738281 28.613281 -38.582031 28.226562 -36.742188 C 27.84375 -34.824219 27.613281 -32.90625 27.152344 -30.988281 C 26.15625 -26.539062 25.007812 -22.015625 23.777344 -17.566406 C 22.628906 -13.039062 21.476562 -8.589844 19.40625 -4.371094 C 18.871094 -3.222656 18.332031 -2.070312 17.257812 -0.996094 C 17.105469 -1.378906 16.953125 -1.535156 16.953125 -1.609375 Z M 45.640625 -49.859375 C 45.640625 -50.011719 45.640625 -50.164062 45.640625 -50.320312 C 45.71875 -51.46875 45.488281 -52.925781 46.714844 -53.386719 C 47.710938 -53.695312 48.554688 -52.542969 49.320312 -51.777344 C 50.703125 -50.242188 51.625 -48.476562 52.238281 -46.5625 C 53.925781 -41.496094 54.078125 -36.359375 53.539062 -31.144531 C 49.246094 -36.742188 45.71875 -42.570312 45.640625 -49.859375 Z M 45.640625 -49.859375 "/></g></g></g><g fill="#050a32" fill-opacity="1"><g transform="translate(179.994838, 156.048341)"><g><path d="M 18.484375 -52.925781 C 18.410156 -55.074219 18.332031 -57.222656 18.179688 -59.371094 C 18.027344 -61.289062 17.71875 -61.519531 15.878906 -61.210938 C 14.957031 -60.980469 14.039062 -60.828125 13.117188 -60.597656 C 11.046875 -60.214844 10.96875 -60.136719 10.664062 -57.988281 C 10.125 -53.925781 9.820312 -49.9375 9.742188 -45.871094 C 9.589844 -38.660156 9.589844 -31.371094 9.742188 -24.164062 C 9.742188 -23.546875 9.742188 -23.011719 9.742188 -22.398438 C 9.742188 -21.785156 9.359375 -21.476562 8.746094 -21.632812 C 7.59375 -21.9375 6.441406 -22.167969 5.371094 -22.476562 C 4.371094 -22.78125 4.066406 -22.320312 3.835938 -21.476562 C 3.605469 -20.480469 3.988281 -19.867188 4.984375 -19.558594 C 6.289062 -19.253906 7.515625 -18.871094 8.746094 -18.5625 C 9.511719 -18.332031 9.894531 -17.949219 9.972656 -17.183594 C 9.972656 -16.644531 10.046875 -16.03125 10.125 -15.496094 C 10.433594 -10.277344 10.816406 -5.0625 11.199219 0.152344 C 11.277344 1.457031 11.351562 2.761719 11.582031 3.988281 C 11.8125 5.828125 12.195312 6.058594 14.039062 5.90625 C 14.882812 5.828125 15.726562 5.753906 16.570312 5.675781 C 18.871094 5.445312 19.101562 5.214844 19.023438 3.066406 C 19.023438 2.453125 19.023438 1.917969 19.023438 1.304688 C 18.640625 -4.371094 18.5625 -10.125 18.5625 -15.800781 C 18.5625 -17.796875 18.5625 -17.796875 20.480469 -18.179688 C 24.621094 -18.945312 28.382812 -20.402344 31.910156 -22.703125 C 40.730469 -28.535156 45.257812 -38.738281 43.339844 -48.476562 C 42.878906 -50.78125 41.957031 -52.773438 40.269531 -54.382812 C 36.433594 -58.066406 31.066406 -58.375 26.386719 -55.152344 C 23.777344 -53.386719 21.785156 -50.933594 20.097656 -48.324219 C 19.714844 -47.710938 19.484375 -47.019531 18.640625 -46.484375 C 18.5625 -48.785156 18.5625 -50.855469 18.484375 -52.925781 Z M 24.390625 -47.097656 C 25.851562 -49.398438 27.539062 -51.394531 29.761719 -53.003906 C 31.371094 -54.078125 31.910156 -54.078125 33.367188 -52.695312 C 34.59375 -51.394531 35.4375 -49.859375 35.746094 -48.09375 C 37.050781 -40.808594 36.207031 -33.902344 31.527344 -27.769531 C 28.6875 -24.085938 25.007812 -21.785156 20.402344 -20.941406 C 18.640625 -20.558594 18.640625 -20.632812 18.5625 -22.476562 C 18.5625 -24.085938 18.5625 -25.621094 18.5625 -27.230469 C 18.101562 -34.59375 20.789062 -40.960938 24.390625 -47.097656 Z M 24.390625 -47.097656 "/></g></g></g><g fill="#050a32" fill-opacity="1"><g transform="translate(222.095737, 156.048341)"><g><path d="M 17.414062 -56.53125 C 18.101562 -59.832031 18.332031 -59.90625 21.632812 -59.140625 C 24.621094 -58.375 27.613281 -57.453125 30.683594 -57.222656 C 31.449219 -57.144531 32.140625 -57.070312 32.90625 -57.222656 C 33.445312 -57.375 33.675781 -57.835938 33.675781 -58.375 C 33.675781 -58.910156 33.289062 -59.140625 32.832031 -59.21875 C 28.765625 -60.136719 24.851562 -61.75 20.710938 -62.59375 C 15.339844 -63.667969 11.351562 -61.671875 8.976562 -56.761719 C 7.902344 -54.539062 7.210938 -52.160156 6.671875 -49.78125 C 5.445312 -43.875 4.753906 -37.894531 4.527344 -31.910156 C 4.449219 -30.070312 4.371094 -30.070312 2.683594 -29.53125 C 0.921875 -29.070312 -0.765625 -28.535156 -2.378906 -27.539062 C -2.992188 -27.152344 -4.140625 -26.769531 -3.835938 -25.925781 C -3.527344 -25.007812 -2.378906 -25.3125 -1.457031 -25.390625 C -1.152344 -25.390625 -0.765625 -25.542969 -0.460938 -25.621094 C 0.382812 -25.851562 1.226562 -26.15625 2.070312 -26.386719 C 4.371094 -27 4.371094 -27 4.449219 -24.699219 C 4.449219 -20.558594 4.832031 -16.492188 5.445312 -12.425781 C 6.058594 -8.128906 6.980469 -3.835938 9.050781 0 C 12.503906 6.367188 20.402344 8.515625 26.617188 4.753906 C 30.988281 2.148438 34.902344 -1.074219 38.351562 -4.753906 C 39.273438 -5.753906 40.039062 -6.828125 40.808594 -7.824219 C 41.191406 -8.359375 41.269531 -8.820312 40.808594 -9.359375 C 39.65625 -10.890625 39.042969 -10.890625 37.738281 -9.511719 C 37.507812 -9.28125 37.355469 -9.050781 37.203125 -8.820312 C 34.289062 -5.0625 30.683594 -2.070312 26.847656 0.613281 C 25.621094 1.457031 24.390625 2.222656 23.089844 2.914062 C 21.015625 3.988281 20.097656 3.605469 19.023438 1.457031 C 18.332031 0.078125 17.949219 -1.378906 17.71875 -2.914062 C 16.492188 -10.046875 16.339844 -17.257812 16.109375 -24.546875 C 16.03125 -26.617188 16.03125 -26.617188 18.257812 -26.539062 C 22.246094 -26.464844 26.15625 -26.234375 30.144531 -26.539062 C 31.527344 -26.617188 32.90625 -26.847656 34.210938 -27.230469 C 34.824219 -27.460938 35.589844 -27.691406 35.363281 -28.535156 C 35.207031 -29.300781 34.519531 -29.457031 33.828125 -29.53125 C 33.597656 -29.53125 33.289062 -29.53125 32.984375 -29.457031 C 27.769531 -28.457031 22.628906 -29.226562 17.414062 -29.761719 C 16.339844 -29.839844 15.953125 -30.375 15.953125 -31.371094 C 16.03125 -34.363281 16.03125 -37.433594 16.03125 -40.5 C 16.109375 -45.871094 16.339844 -51.316406 17.414062 -56.53125 Z M 17.414062 -56.53125 "/></g></g></g><g fill="#050a32" fill-opacity="1"><g transform="translate(259.748792, 156.048341)"><g><path d="M 14.265625 -53.925781 C 12.808594 -48.863281 11.582031 -43.722656 10.738281 -38.507812 C 9.050781 -28.535156 8.589844 -18.5625 10.046875 -8.515625 C 10.507812 -5.371094 11.199219 -2.222656 12.65625 0.691406 C 13.652344 2.761719 15.1875 4.371094 17.488281 4.984375 C 22.015625 6.367188 26.386719 5.371094 29.300781 1.378906 C 30.757812 -0.535156 31.988281 -2.761719 33.058594 -4.910156 C 36.511719 -11.8125 38.507812 -19.253906 40.5 -26.617188 C 40.960938 -28.304688 40.5 -28.6875 38.8125 -28.765625 C 38.121094 -28.765625 37.738281 -28.535156 37.507812 -27.921875 C 37.355469 -27.230469 37.125 -26.539062 36.972656 -25.773438 C 35.132812 -19.253906 33.136719 -12.734375 29.992188 -6.671875 C 28.839844 -4.449219 27.613281 -2.222656 26.003906 -0.230469 C 25.234375 0.691406 24.316406 1.609375 23.242188 2.148438 C 22.015625 2.839844 21.554688 2.683594 21.09375 1.378906 C 20.558594 -0.152344 20.402344 -1.839844 20.171875 -3.527344 C 19.558594 -8.820312 19.945312 -14.191406 20.328125 -19.558594 C 21.09375 -30.757812 22.859375 -41.957031 23.472656 -53.234375 C 23.625 -54.921875 23.703125 -55 25.234375 -54.691406 C 30.300781 -53.539062 35.363281 -54.613281 40.425781 -54.769531 C 41.957031 -54.84375 42.113281 -55.226562 42.035156 -56.914062 C 41.882812 -58.296875 41.804688 -58.375 40.195312 -58.449219 C 39.886719 -58.449219 39.503906 -58.449219 39.121094 -58.449219 C 33.367188 -58.066406 27.691406 -58.527344 22.167969 -60.292969 C 20.941406 -60.675781 19.636719 -60.90625 18.410156 -61.136719 C 10.046875 -62.59375 2.070312 -61.289062 -5.371094 -57.375 C -8.820312 -55.535156 -8.820312 -55.226562 -6.519531 -52.160156 C -5.523438 -50.855469 -5.445312 -50.78125 -4.066406 -51.546875 C 0.152344 -53.695312 4.679688 -54.691406 9.28125 -55.382812 C 10.96875 -55.613281 12.808594 -55.996094 14.574219 -55.6875 C 14.804688 -55 14.421875 -54.460938 14.265625 -53.925781 Z M 14.265625 -53.925781 "/></g></g></g><g fill="#050a32" fill-opacity="1"><g transform="translate(295.56135, 156.048341)"><g/></g></g><g fill="#050a32" fill-opacity="1"><g transform="translate(318.873911, 156.048341)"><g><path d="M 37.894531 -21.402344 C 40.195312 -21.554688 42.339844 -22.246094 44.488281 -22.78125 C 45.179688 -22.933594 45.410156 -23.394531 45.332031 -24.085938 C 45.179688 -24.777344 44.875 -25.082031 44.105469 -25.007812 C 43.800781 -24.929688 43.414062 -24.929688 43.03125 -24.851562 C 39.121094 -23.933594 35.054688 -23.703125 30.988281 -23.472656 C 29.070312 -23.320312 28.996094 -23.394531 28.382812 -25.160156 C 26.925781 -29.148438 25.464844 -33.214844 24.007812 -37.203125 C 23.164062 -39.351562 22.476562 -41.574219 22.089844 -43.875 C 21.476562 -47.328125 21.632812 -50.78125 22.859375 -54.078125 C 23.242188 -55.152344 23.703125 -56.226562 24.929688 -56.378906 C 26.234375 -56.53125 26.925781 -55.535156 27.539062 -54.613281 C 28.613281 -52.925781 29.457031 -51.085938 29.992188 -49.167969 C 30.453125 -47.40625 30.914062 -45.640625 31.21875 -43.875 C 31.449219 -42.878906 31.910156 -42.496094 32.90625 -42.648438 C 33.980469 -42.800781 35.054688 -42.957031 36.128906 -43.109375 C 37.664062 -43.339844 37.738281 -43.414062 37.894531 -44.949219 C 38.121094 -48.09375 37.507812 -51.007812 36.207031 -53.847656 C 34.058594 -58.601562 28.613281 -61.363281 23.472656 -60.292969 C 18.484375 -59.292969 15.417969 -55.996094 13.960938 -51.238281 C 12.808594 -47.40625 13.039062 -43.492188 13.730469 -39.65625 C 14.652344 -34.363281 16.492188 -29.300781 18.101562 -24.238281 C 18.714844 -22.398438 18.714844 -22.398438 16.796875 -22.015625 C 14.191406 -21.554688 11.582031 -20.863281 9.128906 -19.714844 C 4.984375 -17.796875 2.300781 -14.652344 1.457031 -10.125 C 0.308594 -4.066406 3.910156 2.453125 9.511719 4.066406 C 15.417969 5.675781 21.171875 4.984375 26.464844 1.917969 C 30.375 -0.382812 32.371094 -3.910156 32.292969 -8.515625 C 32.214844 -11.660156 31.527344 -14.726562 30.757812 -17.71875 C 30.453125 -18.640625 29.992188 -19.558594 30.070312 -20.863281 C 32.753906 -21.09375 35.363281 -21.246094 37.894531 -21.402344 Z M 18.101562 1.304688 C 14.574219 2.53125 11.199219 1.609375 9.050781 -1.304688 C 6.597656 -4.679688 5.984375 -8.4375 7.285156 -12.425781 C 7.976562 -14.496094 9.203125 -16.109375 11.121094 -17.257812 C 13.269531 -18.640625 15.726562 -19.175781 18.257812 -19.714844 C 19.023438 -19.867188 19.636719 -19.636719 19.867188 -18.792969 C 21.09375 -14.496094 22.320312 -10.277344 22.550781 -6.519531 C 22.628906 -2.070312 21.171875 0.230469 18.101562 1.304688 Z M 18.101562 1.304688 "/></g></g></g><g fill="#050a32" fill-opacity="1"><g transform="translate(360.5147, 156.048341)"><g><path d="M 9.511719 -23.703125 C 9.972656 -30.070312 10.507812 -36.359375 10.890625 -42.726562 C 11.277344 -48.324219 11.660156 -54 11.890625 -59.601562 C 12.042969 -62.515625 11.964844 -62.59375 8.976562 -62.515625 C 4.527344 -62.515625 4.449219 -62.515625 3.605469 -58.144531 C 1.839844 -49.628906 0.613281 -41.039062 0 -32.371094 C -0.613281 -24.699219 -0.691406 -17.027344 0.152344 -9.433594 C 0.460938 -6.980469 0.84375 -4.527344 1.457031 -2.148438 C 1.839844 -0.691406 2.839844 0 4.296875 0.078125 C 4.910156 0.078125 5.597656 0.078125 6.214844 0 C 7.363281 -0.078125 8.054688 -0.613281 8.128906 -1.917969 C 8.4375 -4.296875 8.898438 -6.597656 9.433594 -8.898438 C 11.277344 -17.105469 14.804688 -24.46875 19.328125 -31.449219 C 19.945312 -32.292969 20.558594 -33.519531 21.785156 -33.289062 C 23.164062 -32.90625 22.703125 -31.527344 22.78125 -30.453125 C 22.859375 -24.007812 22.933594 -17.640625 23.089844 -11.199219 C 23.089844 -8.746094 23.242188 -6.289062 23.546875 -3.835938 C 23.933594 -1.6875 24.390625 0.460938 25.390625 2.378906 C 26.003906 3.527344 26.769531 4.449219 28.074219 4.753906 C 30.835938 5.292969 33.367188 4.910156 35.363281 2.609375 C 36.820312 0.84375 37.894531 -1.074219 38.890625 -3.144531 C 41.574219 -8.898438 43.644531 -14.957031 45.871094 -20.863281 C 46.5625 -22.703125 46.484375 -22.703125 44.644531 -23.242188 C 43.339844 -23.546875 42.957031 -23.011719 42.570312 -22.015625 C 40.730469 -17.640625 38.890625 -13.347656 37.050781 -9.050781 C 35.898438 -6.214844 34.746094 -3.453125 33.136719 -0.84375 C 32.523438 0.230469 31.988281 1.304688 30.835938 1.996094 C 30.144531 1.074219 29.992188 0.078125 29.761719 -0.921875 C 29.226562 -3.910156 28.917969 -6.980469 28.917969 -9.972656 C 28.917969 -15.1875 28.917969 -20.402344 28.917969 -25.621094 C 28.917969 -28.226562 28.6875 -30.835938 27.84375 -33.289062 C 26.847656 -36.511719 24.007812 -37.894531 20.789062 -36.894531 C 19.328125 -36.433594 18.101562 -35.515625 17.027344 -34.441406 C 15.417969 -32.832031 14.113281 -30.988281 12.964844 -29.070312 C 11.890625 -27.308594 10.890625 -25.464844 9.820312 -23.703125 C 9.742188 -23.703125 9.589844 -23.703125 9.511719 -23.703125 Z M 9.511719 -23.703125 "/></g></g></g><g fill="#050a32" fill-opacity="1"><g transform="translate(400.545047, 156.048341)"><g><path d="M 18.792969 -21.859375 C 19.328125 -21.785156 19.789062 -21.632812 20.25 -21.554688 C 24.699219 -20.480469 29.070312 -21.324219 33.367188 -22.398438 C 34.289062 -22.628906 34.519531 -23.089844 34.289062 -24.007812 C 34.132812 -24.851562 33.519531 -24.929688 32.832031 -24.777344 C 31.988281 -24.546875 31.144531 -24.46875 30.300781 -24.238281 C 24.929688 -22.859375 20.632812 -24.621094 16.875 -28.382812 C 16.261719 -28.996094 15.648438 -29.609375 15.035156 -30.222656 C 14.265625 -31.066406 13.421875 -31.832031 12.503906 -32.523438 C 10.203125 -34.210938 8.4375 -34.210938 6.214844 -32.445312 C 4.832031 -31.449219 3.835938 -30.144531 2.914062 -28.765625 C -0.078125 -24.164062 -1.609375 -19.101562 -2.070312 -13.652344 C -2.378906 -10.664062 -1.917969 -7.746094 -0.535156 -5.0625 C 0.765625 -2.53125 2.683594 -0.765625 5.445312 -0.152344 C 10.890625 1.152344 15.035156 -0.996094 17.183594 -6.136719 C 19.101562 -10.890625 19.789062 -15.726562 18.484375 -20.789062 C 18.410156 -21.015625 18.484375 -21.324219 18.410156 -21.707031 C 18.714844 -21.785156 18.714844 -21.859375 18.792969 -21.859375 Z M 10.96875 -26.847656 C 15.035156 -20.097656 15.878906 -13.039062 12.425781 -5.828125 C 11.890625 -4.832031 11.351562 -3.910156 10.507812 -3.144531 C 9.511719 -2.222656 8.589844 -2.300781 7.746094 -3.453125 C 7.210938 -4.140625 6.980469 -4.910156 6.671875 -5.753906 C 5.753906 -9.050781 5.753906 -12.351562 6.214844 -15.648438 C 6.671875 -18.714844 7.210938 -21.785156 8.207031 -24.699219 C 8.589844 -25.851562 9.050781 -27 9.820312 -27.921875 C 10.433594 -27.691406 10.738281 -27.230469 10.96875 -26.847656 Z M 10.96875 -26.847656 "/></g></g></g><g fill="#050a32" fill-opacity="1"><g transform="translate(430.376024, 156.048341)"><g><path d="M 9.972656 -30.683594 C 10.046875 -33.214844 10.203125 -35.746094 10.277344 -38.277344 C 10.277344 -39.425781 10.203125 -40.578125 10.125 -41.726562 C 10.046875 -42.648438 9.589844 -43.1875 8.589844 -43.03125 C 7.515625 -42.957031 6.367188 -42.878906 5.292969 -42.800781 C 3.144531 -42.570312 3.144531 -42.570312 2.609375 -40.5 C 2.453125 -40.039062 2.378906 -39.65625 2.300781 -39.195312 C 0.921875 -31.144531 -0.078125 -23.011719 -0.382812 -14.882812 C -0.691406 -5.371094 -0.078125 4.066406 0.996094 13.5 C 1.152344 15.109375 1.535156 16.722656 1.917969 18.410156 C 2.070312 19.40625 2.683594 19.867188 3.757812 19.714844 C 4.910156 19.636719 6.058594 19.558594 7.210938 19.484375 C 9.28125 19.328125 9.664062 19.023438 9.359375 17.027344 C 8.515625 10.355469 9.050781 3.757812 8.820312 -2.914062 C 8.746094 -4.371094 8.820312 -4.449219 10.355469 -4.296875 C 16.414062 -3.910156 21.015625 -6.441406 24.546875 -11.121094 C 26.695312 -13.960938 28.382812 -17.027344 29.226562 -20.402344 C 29.683594 -22.089844 30.527344 -22.703125 32.140625 -23.011719 C 34.441406 -23.472656 36.742188 -24.164062 39.042969 -24.699219 C 39.734375 -24.851562 40.039062 -25.234375 39.964844 -25.925781 C 39.808594 -26.695312 39.425781 -27.078125 38.582031 -27 C 38.429688 -27 38.199219 -27 37.96875 -26.925781 C 36.359375 -26.617188 34.671875 -26.386719 33.058594 -26.082031 C 30.453125 -25.542969 30.453125 -25.542969 30.222656 -28.226562 C 29.992188 -30.605469 29.378906 -32.753906 28.074219 -34.746094 C 25.390625 -38.964844 20.558594 -40.039062 16.339844 -37.355469 C 14.652344 -36.28125 13.269531 -34.824219 12.042969 -33.136719 C 11.507812 -32.292969 10.890625 -31.527344 10.355469 -30.683594 C 10.203125 -30.683594 10.125 -30.683594 9.972656 -30.683594 Z M 16.875 -33.136719 C 17.335938 -33.902344 17.949219 -34.519531 18.640625 -35.054688 C 20.171875 -36.128906 21.476562 -35.976562 22.550781 -34.441406 C 22.859375 -33.980469 23.089844 -33.445312 23.320312 -32.90625 C 24.164062 -30.375 24.085938 -27.769531 24.007812 -25.160156 C 24.007812 -24.390625 23.546875 -24.007812 22.859375 -23.855469 C 18.792969 -22.78125 14.882812 -21.324219 11.121094 -19.253906 C 12.273438 -24.316406 14.34375 -28.839844 16.875 -33.136719 Z M 22.859375 -20.097656 C 21.554688 -15.878906 19.484375 -12.042969 16.183594 -8.898438 C 15.726562 -8.4375 15.1875 -8.054688 14.652344 -7.746094 C 13.117188 -6.980469 11.890625 -6.980469 10.816406 -7.976562 C 9.589844 -9.050781 9.203125 -10.355469 9.664062 -11.890625 C 9.972656 -12.734375 10.433594 -13.5 10.96875 -14.113281 C 14.191406 -17.566406 18.332031 -19.328125 22.703125 -20.710938 C 22.78125 -20.402344 22.933594 -20.25 22.859375 -20.097656 Z M 22.859375 -20.097656 "/></g></g></g><g fill="#685546" fill-opacity="1"><g transform="translate(47.940095, 191.293014)"><g><path d="M 6.53125 0.25 C 5.375 0.25 4.253906 0.09375 3.171875 -0.21875 C 2.097656 -0.53125 1.234375 -0.9375 0.578125 -1.4375 L 1.734375 -3.984375 C 2.359375 -3.523438 3.097656 -3.15625 3.953125 -2.875 C 4.816406 -2.59375 5.679688 -2.453125 6.546875 -2.453125 C 7.503906 -2.453125 8.210938 -2.59375 8.671875 -2.875 C 9.128906 -3.164062 9.359375 -3.546875 9.359375 -4.015625 C 9.359375 -4.367188 9.222656 -4.660156 8.953125 -4.890625 C 8.679688 -5.117188 8.332031 -5.300781 7.90625 -5.4375 C 7.488281 -5.582031 6.914062 -5.738281 6.1875 -5.90625 C 5.070312 -6.164062 4.160156 -6.425781 3.453125 -6.6875 C 2.742188 -6.957031 2.132812 -7.382812 1.625 -7.96875 C 1.125 -8.550781 0.875 -9.328125 0.875 -10.296875 C 0.875 -11.140625 1.101562 -11.90625 1.5625 -12.59375 C 2.019531 -13.28125 2.707031 -13.828125 3.625 -14.234375 C 4.550781 -14.640625 5.6875 -14.84375 7.03125 -14.84375 C 7.957031 -14.84375 8.863281 -14.726562 9.75 -14.5 C 10.644531 -14.28125 11.425781 -13.960938 12.09375 -13.546875 L 11.046875 -10.984375 C 9.703125 -11.742188 8.351562 -12.125 7 -12.125 C 6.0625 -12.125 5.363281 -11.972656 4.90625 -11.671875 C 4.457031 -11.367188 4.234375 -10.96875 4.234375 -10.46875 C 4.234375 -9.96875 4.492188 -9.59375 5.015625 -9.34375 C 5.535156 -9.101562 6.332031 -8.863281 7.40625 -8.625 C 8.507812 -8.363281 9.414062 -8.097656 10.125 -7.828125 C 10.832031 -7.566406 11.441406 -7.148438 11.953125 -6.578125 C 12.460938 -6.015625 12.71875 -5.242188 12.71875 -4.265625 C 12.71875 -3.429688 12.484375 -2.671875 12.015625 -1.984375 C 11.546875 -1.296875 10.847656 -0.75 9.921875 -0.34375 C 8.992188 0.0507812 7.863281 0.25 6.53125 0.25 Z M 6.53125 0.25 "/></g></g></g><g fill="#685546" fill-opacity="1"><g transform="translate(63.111888, 191.293014)"><g><path d="M 13.03125 -2.703125 L 13.03125 0 L 1.734375 0 L 1.734375 -14.59375 L 12.75 -14.59375 L 12.75 -11.875 L 5.078125 -11.875 L 5.078125 -8.71875 L 11.859375 -8.71875 L 11.859375 -6.09375 L 5.078125 -6.09375 L 5.078125 -2.703125 Z M 13.03125 -2.703125 "/></g></g></g><g fill="#685546" fill-opacity="1"><g transform="translate(78.971383, 191.293014)"><g><path d="M 1.734375 -14.59375 L 5.109375 -14.59375 L 5.109375 -2.75 L 12.421875 -2.75 L 12.421875 0 L 1.734375 0 Z M 1.734375 -14.59375 "/></g></g></g><g fill="#685546" fill-opacity="1"><g transform="translate(93.434616, 191.293014)"><g><path d="M 1.734375 -14.59375 L 5.109375 -14.59375 L 5.109375 -2.75 L 12.421875 -2.75 L 12.421875 0 L 1.734375 0 Z M 1.734375 -14.59375 "/></g></g></g><g fill="#685546" fill-opacity="1"><g transform="translate(107.897852, 191.293014)"><g><path d="M 1.734375 -14.59375 L 5.109375 -14.59375 L 5.109375 0 L 1.734375 0 Z M 1.734375 -14.59375 "/></g></g></g><g fill="#685546" fill-opacity="1"><g transform="translate(116.609359, 191.293014)"><g><path d="M 15.109375 -14.59375 L 15.109375 0 L 12.34375 0 L 5.0625 -8.859375 L 5.0625 0 L 1.734375 0 L 1.734375 -14.59375 L 4.515625 -14.59375 L 11.78125 -5.734375 L 11.78125 -14.59375 Z M 15.109375 -14.59375 "/></g></g></g><g fill="#685546" fill-opacity="1"><g transform="translate(135.32388, 191.293014)"><g><path d="M 11.59375 -7.53125 L 14.671875 -7.53125 L 14.671875 -1.609375 C 13.878906 -1.003906 12.960938 -0.539062 11.921875 -0.21875 C 10.878906 0.09375 9.832031 0.25 8.78125 0.25 C 7.257812 0.25 5.894531 -0.0703125 4.6875 -0.71875 C 3.476562 -1.363281 2.53125 -2.257812 1.84375 -3.40625 C 1.15625 -4.550781 0.8125 -5.847656 0.8125 -7.296875 C 0.8125 -8.742188 1.15625 -10.039062 1.84375 -11.1875 C 2.53125 -12.332031 3.484375 -13.226562 4.703125 -13.875 C 5.929688 -14.519531 7.3125 -14.84375 8.84375 -14.84375 C 10.113281 -14.84375 11.269531 -14.625 12.3125 -14.1875 C 13.351562 -13.757812 14.226562 -13.132812 14.9375 -12.3125 L 12.78125 -10.3125 C 11.738281 -11.414062 10.476562 -11.96875 9 -11.96875 C 8.070312 -11.96875 7.242188 -11.769531 6.515625 -11.375 C 5.796875 -10.988281 5.234375 -10.441406 4.828125 -9.734375 C 4.429688 -9.023438 4.234375 -8.210938 4.234375 -7.296875 C 4.234375 -6.390625 4.429688 -5.582031 4.828125 -4.875 C 5.234375 -4.164062 5.796875 -3.613281 6.515625 -3.21875 C 7.234375 -2.820312 8.050781 -2.625 8.96875 -2.625 C 9.9375 -2.625 10.8125 -2.832031 11.59375 -3.25 Z M 11.59375 -7.53125 "/></g></g></g><g fill="#685546" fill-opacity="1"><g transform="translate(153.267342, 191.293014)"><g/></g></g><g fill="#685546" fill-opacity="1"><g transform="translate(161.041063, 191.293014)"><g><path d="M 8.71875 0.25 C 7.226562 0.25 5.878906 -0.0703125 4.671875 -0.71875 C 3.472656 -1.363281 2.53125 -2.257812 1.84375 -3.40625 C 1.15625 -4.550781 0.8125 -5.847656 0.8125 -7.296875 C 0.8125 -8.742188 1.15625 -10.039062 1.84375 -11.1875 C 2.53125 -12.332031 3.472656 -13.226562 4.671875 -13.875 C 5.878906 -14.519531 7.234375 -14.84375 8.734375 -14.84375 C 9.992188 -14.84375 11.132812 -14.617188 12.15625 -14.171875 C 13.175781 -13.722656 14.035156 -13.082031 14.734375 -12.25 L 12.5625 -10.25 C 11.582031 -11.394531 10.363281 -11.96875 8.90625 -11.96875 C 8 -11.96875 7.191406 -11.769531 6.484375 -11.375 C 5.773438 -10.976562 5.222656 -10.425781 4.828125 -9.71875 C 4.429688 -9.007812 4.234375 -8.203125 4.234375 -7.296875 C 4.234375 -6.390625 4.429688 -5.582031 4.828125 -4.875 C 5.222656 -4.164062 5.773438 -3.613281 6.484375 -3.21875 C 7.191406 -2.820312 8 -2.625 8.90625 -2.625 C 10.363281 -2.625 11.582031 -3.203125 12.5625 -4.359375 L 14.734375 -2.359375 C 14.035156 -1.503906 13.171875 -0.851562 12.140625 -0.40625 C 11.117188 0.03125 9.976562 0.25 8.71875 0.25 Z M 8.71875 0.25 "/></g></g></g><g fill="#685546" fill-opacity="1"><g transform="translate(178.192605, 191.293014)"><g><path d="M 11.34375 -3.125 L 4.5625 -3.125 L 3.265625 0 L -0.1875 0 L 6.3125 -14.59375 L 9.65625 -14.59375 L 16.171875 0 L 12.625 0 Z M 10.28125 -5.6875 L 7.96875 -11.28125 L 5.65625 -5.6875 Z M 10.28125 -5.6875 "/></g></g></g><g fill="#685546" fill-opacity="1"><g transform="translate(196.03187, 191.293014)"><g><path d="M 4.75 -11.84375 L 0.078125 -11.84375 L 0.078125 -14.59375 L 12.796875 -14.59375 L 12.796875 -11.84375 L 8.125 -11.84375 L 8.125 0 L 4.75 0 Z M 4.75 -11.84375 "/></g></g></g><g fill="#685546" fill-opacity="1"><g transform="translate(210.786859, 191.293014)"><g><path d="M 6.53125 0.25 C 5.375 0.25 4.253906 0.09375 3.171875 -0.21875 C 2.097656 -0.53125 1.234375 -0.9375 0.578125 -1.4375 L 1.734375 -3.984375 C 2.359375 -3.523438 3.097656 -3.15625 3.953125 -2.875 C 4.816406 -2.59375 5.679688 -2.453125 6.546875 -2.453125 C 7.503906 -2.453125 8.210938 -2.59375 8.671875 -2.875 C 9.128906 -3.164062 9.359375 -3.546875 9.359375 -4.015625 C 9.359375 -4.367188 9.222656 -4.660156 8.953125 -4.890625 C 8.679688 -5.117188 8.332031 -5.300781 7.90625 -5.4375 C 7.488281 -5.582031 6.914062 -5.738281 6.1875 -5.90625 C 5.070312 -6.164062 4.160156 -6.425781 3.453125 -6.6875 C 2.742188 -6.957031 2.132812 -7.382812 1.625 -7.96875 C 1.125 -8.550781 0.875 -9.328125 0.875 -10.296875 C 0.875 -11.140625 1.101562 -11.90625 1.5625 -12.59375 C 2.019531 -13.28125 2.707031 -13.828125 3.625 -14.234375 C 4.550781 -14.640625 5.6875 -14.84375 7.03125 -14.84375 C 7.957031 -14.84375 8.863281 -14.726562 9.75 -14.5 C 10.644531 -14.28125 11.425781 -13.960938 12.09375 -13.546875 L 11.046875 -10.984375 C 9.703125 -11.742188 8.351562 -12.125 7 -12.125 C 6.0625 -12.125 5.363281 -11.972656 4.90625 -11.671875 C 4.457031 -11.367188 4.234375 -10.96875 4.234375 -10.46875 C 4.234375 -9.96875 4.492188 -9.59375 5.015625 -9.34375 C 5.535156 -9.101562 6.332031 -8.863281 7.40625 -8.625 C 8.507812 -8.363281 9.414062 -8.097656 10.125 -7.828125 C 10.832031 -7.566406 11.441406 -7.148438 11.953125 -6.578125 C 12.460938 -6.015625 12.71875 -5.242188 12.71875 -4.265625 C 12.71875 -3.429688 12.484375 -2.671875 12.015625 -1.984375 C 11.546875 -1.296875 10.847656 -0.75 9.921875 -0.34375 C 8.992188 0.0507812 7.863281 0.25 6.53125 0.25 Z M 6.53125 0.25 "/></g></g></g><g fill="#685546" fill-opacity="1"><g transform="translate(225.958643, 191.293014)"><g/></g></g><g fill="#685546" fill-opacity="1"><g transform="translate(233.732354, 191.293014)"><g><path d="M 11.21875 -6.03125 L 7.59375 -6.03125 L 7.59375 -2.484375 L 4.890625 -2.484375 L 4.890625 -6.03125 L 1.296875 -6.03125 L 1.296875 -8.5625 L 4.890625 -8.5625 L 4.890625 -12.109375 L 7.59375 -12.109375 L 7.59375 -8.5625 L 11.21875 -8.5625 Z M 11.21875 -6.03125 "/></g></g></g><g fill="#685546" fill-opacity="1"><g transform="translate(248.091384, 191.293014)"><g/></g></g><g fill="#685546" fill-opacity="1"><g transform="translate(255.865095, 191.293014)"><g><path d="M 8.71875 0.25 C 7.226562 0.25 5.878906 -0.0703125 4.671875 -0.71875 C 3.472656 -1.363281 2.53125 -2.257812 1.84375 -3.40625 C 1.15625 -4.550781 0.8125 -5.847656 0.8125 -7.296875 C 0.8125 -8.742188 1.15625 -10.039062 1.84375 -11.1875 C 2.53125 -12.332031 3.472656 -13.226562 4.671875 -13.875 C 5.878906 -14.519531 7.234375 -14.84375 8.734375 -14.84375 C 9.992188 -14.84375 11.132812 -14.617188 12.15625 -14.171875 C 13.175781 -13.722656 14.035156 -13.082031 14.734375 -12.25 L 12.5625 -10.25 C 11.582031 -11.394531 10.363281 -11.96875 8.90625 -11.96875 C 8 -11.96875 7.191406 -11.769531 6.484375 -11.375 C 5.773438 -10.976562 5.222656 -10.425781 4.828125 -9.71875 C 4.429688 -9.007812 4.234375 -8.203125 4.234375 -7.296875 C 4.234375 -6.390625 4.429688 -5.582031 4.828125 -4.875 C 5.222656 -4.164062 5.773438 -3.613281 6.484375 -3.21875 C 7.191406 -2.820312 8 -2.625 8.90625 -2.625 C 10.363281 -2.625 11.582031 -3.203125 12.5625 -4.359375 L 14.734375 -2.359375 C 14.035156 -1.503906 13.171875 -0.851562 12.140625 -0.40625 C 11.117188 0.03125 9.976562 0.25 8.71875 0.25 Z M 8.71875 0.25 "/></g></g></g><g fill="#685546" fill-opacity="1"><g transform="translate(273.016627, 191.293014)"><g><path d="M 11.34375 -3.125 L 4.5625 -3.125 L 3.265625 0 L -0.1875 0 L 6.3125 -14.59375 L 9.65625 -14.59375 L 16.171875 0 L 12.625 0 Z M 10.28125 -5.6875 L 7.96875 -11.28125 L 5.65625 -5.6875 Z M 10.28125 -5.6875 "/></g></g></g><g fill="#685546" fill-opacity="1"><g transform="translate(290.855882, 191.293014)"><g><path d="M 4.75 -11.84375 L 0.078125 -11.84375 L 0.078125 -14.59375 L 12.796875 -14.59375 L 12.796875 -11.84375 L 8.125 -11.84375 L 8.125 0 L 4.75 0 Z M 4.75 -11.84375 "/></g></g></g><g fill="#685546" fill-opacity="1"><g transform="translate(305.610861, 191.293014)"><g/></g></g><g fill="#685546" fill-opacity="1"><g transform="translate(313.384572, 191.293014)"><g><path d="M 6.53125 0.25 C 5.375 0.25 4.253906 0.09375 3.171875 -0.21875 C 2.097656 -0.53125 1.234375 -0.9375 0.578125 -1.4375 L 1.734375 -3.984375 C 2.359375 -3.523438 3.097656 -3.15625 3.953125 -2.875 C 4.816406 -2.59375 5.679688 -2.453125 6.546875 -2.453125 C 7.503906 -2.453125 8.210938 -2.59375 8.671875 -2.875 C 9.128906 -3.164062 9.359375 -3.546875 9.359375 -4.015625 C 9.359375 -4.367188 9.222656 -4.660156 8.953125 -4.890625 C 8.679688 -5.117188 8.332031 -5.300781 7.90625 -5.4375 C 7.488281 -5.582031 6.914062 -5.738281 6.1875 -5.90625 C 5.070312 -6.164062 4.160156 -6.425781 3.453125 -6.6875 C 2.742188 -6.957031 2.132812 -7.382812 1.625 -7.96875 C 1.125 -8.550781 0.875 -9.328125 0.875 -10.296875 C 0.875 -11.140625 1.101562 -11.90625 1.5625 -12.59375 C 2.019531 -13.28125 2.707031 -13.828125 3.625 -14.234375 C 4.550781 -14.640625 5.6875 -14.84375 7.03125 -14.84375 C 7.957031 -14.84375 8.863281 -14.726562 9.75 -14.5 C 10.644531 -14.28125 11.425781 -13.960938 12.09375 -13.546875 L 11.046875 -10.984375 C 9.703125 -11.742188 8.351562 -12.125 7 -12.125 C 6.0625 -12.125 5.363281 -11.972656 4.90625 -11.671875 C 4.457031 -11.367188 4.234375 -10.96875 4.234375 -10.46875 C 4.234375 -9.96875 4.492188 -9.59375 5.015625 -9.34375 C 5.535156 -9.101562 6.332031 -8.863281 7.40625 -8.625 C 8.507812 -8.363281 9.414062 -8.097656 10.125 -7.828125 C 10.832031 -7.566406 11.441406 -7.148438 11.953125 -6.578125 C 12.460938 -6.015625 12.71875 -5.242188 12.71875 -4.265625 C 12.71875 -3.429688 12.484375 -2.671875 12.015625 -1.984375 C 11.546875 -1.296875 10.847656 -0.75 9.921875 -0.34375 C 8.992188 0.0507812 7.863281 0.25 6.53125 0.25 Z M 6.53125 0.25 "/></g></g></g><g fill="#685546" fill-opacity="1"><g transform="translate(328.556356, 191.293014)"><g><path d="M 8.21875 0.25 C 6.125 0.25 4.5 -0.320312 3.34375 -1.46875 C 2.1875 -2.625 1.609375 -4.273438 1.609375 -6.421875 L 1.609375 -14.59375 L 4.984375 -14.59375 L 4.984375 -6.546875 C 4.984375 -3.929688 6.066406 -2.625 8.234375 -2.625 C 9.285156 -2.625 10.085938 -2.9375 10.640625 -3.5625 C 11.203125 -4.195312 11.484375 -5.191406 11.484375 -6.546875 L 11.484375 -14.59375 L 14.8125 -14.59375 L 14.8125 -6.421875 C 14.8125 -4.273438 14.234375 -2.625 13.078125 -1.46875 C 11.921875 -0.320312 10.300781 0.25 8.21875 0.25 Z M 8.21875 0.25 "/></g></g></g><g fill="#685546" fill-opacity="1"><g transform="translate(346.854067, 191.293014)"><g><path d="M 8.046875 -14.59375 C 9.335938 -14.59375 10.457031 -14.375 11.40625 -13.9375 C 12.363281 -13.507812 13.097656 -12.898438 13.609375 -12.109375 C 14.117188 -11.316406 14.375 -10.378906 14.375 -9.296875 C 14.375 -8.222656 14.117188 -7.285156 13.609375 -6.484375 C 13.097656 -5.691406 12.363281 -5.082031 11.40625 -4.65625 C 10.457031 -4.226562 9.335938 -4.015625 8.046875 -4.015625 L 5.109375 -4.015625 L 5.109375 0 L 1.734375 0 L 1.734375 -14.59375 Z M 7.859375 -6.78125 C 8.867188 -6.78125 9.640625 -7 10.171875 -7.4375 C 10.703125 -7.875 10.96875 -8.492188 10.96875 -9.296875 C 10.96875 -10.117188 10.703125 -10.75 10.171875 -11.1875 C 9.640625 -11.625 8.867188 -11.84375 7.859375 -11.84375 L 5.109375 -11.84375 L 5.109375 -6.78125 Z M 7.859375 -6.78125 "/></g></g></g><g fill="#685546" fill-opacity="1"><g transform="translate(363.984763, 191.293014)"><g><path d="M 8.046875 -14.59375 C 9.335938 -14.59375 10.457031 -14.375 11.40625 -13.9375 C 12.363281 -13.507812 13.097656 -12.898438 13.609375 -12.109375 C 14.117188 -11.316406 14.375 -10.378906 14.375 -9.296875 C 14.375 -8.222656 14.117188 -7.285156 13.609375 -6.484375 C 13.097656 -5.691406 12.363281 -5.082031 11.40625 -4.65625 C 10.457031 -4.226562 9.335938 -4.015625 8.046875 -4.015625 L 5.109375 -4.015625 L 5.109375 0 L 1.734375 0 L 1.734375 -14.59375 Z M 7.859375 -6.78125 C 8.867188 -6.78125 9.640625 -7 10.171875 -7.4375 C 10.703125 -7.875 10.96875 -8.492188 10.96875 -9.296875 C 10.96875 -10.117188 10.703125 -10.75 10.171875 -11.1875 C 9.640625 -11.625 8.867188 -11.84375 7.859375 -11.84375 L 5.109375 -11.84375 L 5.109375 -6.78125 Z M 7.859375 -6.78125 "/></g></g></g><g fill="#685546" fill-opacity="1"><g transform="translate(381.11546, 191.293014)"><g><path d="M 1.734375 -14.59375 L 5.109375 -14.59375 L 5.109375 -2.75 L 12.421875 -2.75 L 12.421875 0 L 1.734375 0 Z M 1.734375 -14.59375 "/></g></g></g><g fill="#685546" fill-opacity="1"><g transform="translate(395.578686, 191.293014)"><g><path d="M 1.734375 -14.59375 L 5.109375 -14.59375 L 5.109375 0 L 1.734375 0 Z M 1.734375 -14.59375 "/></g></g></g><g fill="#685546" fill-opacity="1"><g transform="translate(404.290183, 191.293014)"><g><path d="M 13.03125 -2.703125 L 13.03125 0 L 1.734375 0 L 1.734375 -14.59375 L 12.75 -14.59375 L 12.75 -11.875 L 5.078125 -11.875 L 5.078125 -8.71875 L 11.859375 -8.71875 L 11.859375 -6.09375 L 5.078125 -6.09375 L 5.078125 -2.703125 Z M 13.03125 -2.703125 "/></g></g></g><g fill="#685546" fill-opacity="1"><g transform="translate(420.14967, 191.293014)"><g><path d="M 6.53125 0.25 C 5.375 0.25 4.253906 0.09375 3.171875 -0.21875 C 2.097656 -0.53125 1.234375 -0.9375 0.578125 -1.4375 L 1.734375 -3.984375 C 2.359375 -3.523438 3.097656 -3.15625 3.953125 -2.875 C 4.816406 -2.59375 5.679688 -2.453125 6.546875 -2.453125 C 7.503906 -2.453125 8.210938 -2.59375 8.671875 -2.875 C 9.128906 -3.164062 9.359375 -3.546875 9.359375 -4.015625 C 9.359375 -4.367188 9.222656 -4.660156 8.953125 -4.890625 C 8.679688 -5.117188 8.332031 -5.300781 7.90625 -5.4375 C 7.488281 -5.582031 6.914062 -5.738281 6.1875 -5.90625 C 5.070312 -6.164062 4.160156 -6.425781 3.453125 -6.6875 C 2.742188 -6.957031 2.132812 -7.382812 1.625 -7.96875 C 1.125 -8.550781 0.875 -9.328125 0.875 -10.296875 C 0.875 -11.140625 1.101562 -11.90625 1.5625 -12.59375 C 2.019531 -13.28125 2.707031 -13.828125 3.625 -14.234375 C 4.550781 -14.640625 5.6875 -14.84375 7.03125 -14.84375 C 7.957031 -14.84375 8.863281 -14.726562 9.75 -14.5 C 10.644531 -14.28125 11.425781 -13.960938 12.09375 -13.546875 L 11.046875 -10.984375 C 9.703125 -11.742188 8.351562 -12.125 7 -12.125 C 6.0625 -12.125 5.363281 -11.972656 4.90625 -11.671875 C 4.457031 -11.367188 4.234375 -10.96875 4.234375 -10.46875 C 4.234375 -9.96875 4.492188 -9.59375 5.015625 -9.34375 C 5.535156 -9.101562 6.332031 -8.863281 7.40625 -8.625 C 8.507812 -8.363281 9.414062 -8.097656 10.125 -7.828125 C 10.832031 -7.566406 11.441406 -7.148438 11.953125 -6.578125 C 12.460938 -6.015625 12.71875 -5.242188 12.71875 -4.265625 C 12.71875 -3.429688 12.484375 -2.671875 12.015625 -1.984375 C 11.546875 -1.296875 10.847656 -0.75 9.921875 -0.34375 C 8.992188 0.0507812 7.863281 0.25 6.53125 0.25 Z M 6.53125 0.25 "/></g></g></g></svg>